<svg version="1.1" xmlns="http://www.w3.org/2000/svg" xmlns:xlink="http://www.w3.org/1999/xlink" width="485.84086" height="367.69984" viewBox="0,0,485.84086,367.69984"><g transform="translate(2.92043,3.34992)"><g data-paper-data="{&quot;isPaintingLayer&quot;:true}" fill-rule="nonzero" stroke="none" stroke-width="0" stroke-linecap="butt" stroke-linejoin="miter" stroke-miterlimit="10" stroke-dasharray="" stroke-dashoffset="0" style="mix-blend-mode: normal"><path d="M-2.92043,364.34992v-367.69984h485.84086v367.69984z" fill="#66e5ff"/><path d="M52.66667,77.5c-2.53741,-2.20408 -2.60434,-15.6897 0,-18c2.79207,-2.47684 15.82753,-2.37889 18,0c2.26711,2.48253 2.32988,15.62903 0,18c-2.34796,2.38938 -15.29089,2.35322 -18,0z" fill="#66b2ff"/><path d="M198.09155,49.16634c-4.41244,-3.83279 -4.52883,-27.28369 0,-31.3012c4.8553,-4.30711 27.52338,-4.13678 31.3012,0c3.9424,4.317 4.05155,27.17819 0,31.3012c-4.083,4.15501 -26.59018,4.09215 -31.3012,0z" fill="#66b2ff"/><path d="M45.41705,322.94748c-6.17913,-5.3674 -6.34212,-38.20776 0,-43.83383c6.7993,-6.03163 38.54342,-5.7931 43.83383,0c5.52088,6.04547 5.67374,38.06002 0,43.83383c-5.71778,5.81864 -37.23657,5.73059 -43.83383,0z" fill="#66b2ff"/><path d="M79.92144,195.32492c-4.17578,-3.62722 -4.28593,-25.82032 0,-29.62235c4.59488,-4.0761 26.04716,-3.91491 29.62235,0c3.73094,4.08546 3.83424,25.72048 0,29.62235c-3.86401,3.93216 -25.16401,3.87266 -29.62235,0z" fill="#66b2ff"/><path d="M413.26966,325.99962c-4.64682,-4.03638 -4.76939,-28.73294 0,-32.96385c5.1132,-4.5359 28.98536,-4.35652 32.96385,0c4.15181,4.54631 4.26676,28.62183 0,32.96385c-4.29987,4.37572 -28.00259,4.30951 -32.96385,0z" fill="#66b2ff"/><path d="M235.201,326.99987c-3.24054,-2.81485 -3.32602,-20.03744 0,-22.98795c3.56578,-3.16319 20.21347,-3.0381 22.98795,0c2.89534,3.17046 2.9755,19.95996 0,22.98795c-2.9986,3.05149 -19.52812,3.00531 -22.98795,0z" fill="#66b2ff"/><path d="M400.66667,188.5c-2.53741,-2.20408 -2.60434,-15.6897 0,-18c2.79208,-2.47684 15.82754,-2.37889 18,0c2.26711,2.48253 2.32988,15.62903 0,18c-2.34796,2.38938 -15.29089,2.35322 -18,0z" fill="#66b2ff"/><path d="M391.16021,85.13207c-5.81872,-5.05434 -5.9722,-35.97918 0,-41.2771c6.40271,-5.67982 36.29526,-5.45521 41.27709,0c5.19886,5.69286 5.3428,35.84006 0,41.2771c-5.38428,5.47925 -35.06464,5.39634 -41.27709,0z" fill="#66b2ff"/><path d="M315.55722,276.66646c-3.7093,-3.22203 -3.80714,-22.93594 0,-26.31325c4.08159,-3.62076 23.13744,-3.47758 26.31325,0c3.31416,3.62907 3.40592,22.84725 0,26.31325c-3.43236,3.4929 -22.35295,3.44005 -26.31325,0z" fill="#66b2ff"/><path d="M128.3711,116.84129c-3.47721,-3.02042 -3.56893,-21.50081 0,-24.66679c3.8262,-3.3942 21.6897,-3.25997 24.66679,0c3.10679,3.40199 3.19281,21.41767 0,24.66679c-3.21759,3.27434 -20.95429,3.2248 -24.66679,0z" fill="#66b2ff"/></g></g></svg>